<svg xmlns="http://www.w3.org/2000/svg" width="30" height="30" viewBox="0 0 30 30">
  <path id="icone_maison" data-name="icone maison" d="M28.561,9.6l-1.086-.85H27.5V2.5H25V6.814L17.311.8A3.742,3.742,0,0,0,12.69.8L1.439,9.6A3.729,3.729,0,0,0,0,12.553V30H11.25V18.749A1.251,1.251,0,0,1,12.5,17.5h5a1.251,1.251,0,0,1,1.25,1.25V30H30V12.553A3.729,3.729,0,0,0,28.561,9.6ZM27.5,27.5H21.25V18.749A3.754,3.754,0,0,0,17.5,15h-5a3.754,3.754,0,0,0-3.75,3.75V27.5H2.5V12.553a1.243,1.243,0,0,1,.48-.985l11.25-8.8a1.247,1.247,0,0,1,1.54,0l11.25,8.8a1.243,1.243,0,0,1,.48.985Z" transform="translate(0 0.002)"/>
</svg>
